<?xml version="1.0" encoding="UTF-8" standalone="no"?>
<svg xmlns="http://www.w3.org/2000/svg" id="copper" width="16" height="16" viewBox="0 0 16 16"
  preserveAspectRatio="xMidYMid meet" rendering="crispEdges">
  <rect id="3-3" x="2" y="2" width="1" height="1" shape-rendering="crispEdges"
    style="fill:var(--svg-fill-color);opacity:255;"></rect>
  <rect id="5-3" x="4" y="2" width="1" height="1" shape-rendering="crispEdges"
    style="fill:var(--svg-fill-color);opacity:255;"></rect>
  <rect id="12-3" x="11" y="2" width="1" height="1" shape-rendering="crispEdges"
    style="fill:var(--svg-fill-color);opacity:255;"></rect>
  <rect id="14-3" x="13" y="2" width="1" height="1" shape-rendering="crispEdges"
    style="fill:var(--svg-fill-color);opacity:255;"></rect>
  <rect id="2-4" x="1" y="3" width="1" height="1" shape-rendering="crispEdges"
    style="fill:var(--svg-fill-color);opacity:255;"></rect>
  <rect id="4-4" x="3" y="3" width="1" height="1" shape-rendering="crispEdges"
    style="fill:var(--svg-fill-color);opacity:255;"></rect>
  <rect id="5-4" x="4" y="3" width="1" height="1" shape-rendering="crispEdges"
    style="fill:var(--svg-fill-color);opacity:255;"></rect>
  <rect id="6-4" x="5" y="3" width="1" height="1" shape-rendering="crispEdges"
    style="fill:var(--svg-fill-color);opacity:255;"></rect>
  <rect id="7-4" x="6" y="3" width="1" height="1" shape-rendering="crispEdges"
    style="fill:var(--svg-fill-color);opacity:255;"></rect>
  <rect id="8-4" x="7" y="3" width="1" height="1" shape-rendering="crispEdges"
    style="fill:var(--svg-fill-color);opacity:255;"></rect>
  <rect id="9-4" x="8" y="3" width="1" height="1" shape-rendering="crispEdges"
    style="fill:var(--svg-fill-color);opacity:255;"></rect>
  <rect id="10-4" x="9" y="3" width="1" height="1" shape-rendering="crispEdges"
    style="fill:var(--svg-fill-color);opacity:255;"></rect>
  <rect id="11-4" x="10" y="3" width="1" height="1" shape-rendering="crispEdges"
    style="fill:var(--svg-fill-color);opacity:255;"></rect>
  <rect id="12-4" x="11" y="3" width="1" height="1" shape-rendering="crispEdges"
    style="fill:var(--svg-fill-color);opacity:255;"></rect>
  <rect id="13-4" x="12" y="3" width="1" height="1" shape-rendering="crispEdges"
    style="fill:var(--svg-fill-color);opacity:255;"></rect>
  <rect id="15-4" x="14" y="3" width="1" height="1" shape-rendering="crispEdges"
    style="fill:var(--svg-fill-color);opacity:255;"></rect>
  <rect id="3-5" x="2" y="4" width="1" height="1" shape-rendering="crispEdges"
    style="fill:var(--svg-fill-color);opacity:255;"></rect>
  <rect id="6-5" x="5" y="4" width="1" height="1" shape-rendering="crispEdges"
    style="fill:var(--svg-fill-color);opacity:255;"></rect>
  <rect id="11-5" x="10" y="4" width="1" height="1" shape-rendering="crispEdges"
    style="fill:var(--svg-fill-color);opacity:255;"></rect>
  <rect id="14-5" x="13" y="4" width="1" height="1" shape-rendering="crispEdges"
    style="fill:var(--svg-fill-color);opacity:255;"></rect>
  <rect id="7-6" x="6" y="5" width="1" height="1" shape-rendering="crispEdges"
    style="fill:var(--svg-fill-color);opacity:255;"></rect>
  <rect id="10-6" x="9" y="5" width="1" height="1" shape-rendering="crispEdges"
    style="fill:var(--svg-fill-color);opacity:255;"></rect>
  <rect id="5-7" x="4" y="6" width="1" height="1" shape-rendering="crispEdges"
    style="fill:var(--svg-fill-color);opacity:255;"></rect>
  <rect id="8-7" x="7" y="6" width="1" height="1" shape-rendering="crispEdges"
    style="fill:var(--svg-fill-color);opacity:255;"></rect>
  <rect id="9-7" x="8" y="6" width="1" height="1" shape-rendering="crispEdges"
    style="fill:var(--svg-fill-color);opacity:255;"></rect>
  <rect id="12-7" x="11" y="6" width="1" height="1" shape-rendering="crispEdges"
    style="fill:var(--svg-fill-color);opacity:255;"></rect>
  <rect id="4-8" x="3" y="7" width="1" height="1" shape-rendering="crispEdges"
    style="fill:var(--svg-fill-color);opacity:255;"></rect>
  <rect id="6-8" x="5" y="7" width="1" height="1" shape-rendering="crispEdges"
    style="fill:var(--svg-fill-color);opacity:255;"></rect>
  <rect id="7-8" x="6" y="7" width="1" height="1" shape-rendering="crispEdges"
    style="fill:var(--svg-fill-color);opacity:255;"></rect>
  <rect id="8-8" x="7" y="7" width="1" height="1" shape-rendering="crispEdges"
    style="fill:var(--svg-fill-color);opacity:255;"></rect>
  <rect id="9-8" x="8" y="7" width="1" height="1" shape-rendering="crispEdges"
    style="fill:var(--svg-fill-color);opacity:255;"></rect>
  <rect id="10-8" x="9" y="7" width="1" height="1" shape-rendering="crispEdges"
    style="fill:var(--svg-fill-color);opacity:255;"></rect>
  <rect id="11-8" x="10" y="7" width="1" height="1" shape-rendering="crispEdges"
    style="fill:var(--svg-fill-color);opacity:255;"></rect>
  <rect id="13-8" x="12" y="7" width="1" height="1" shape-rendering="crispEdges"
    style="fill:var(--svg-fill-color);opacity:255;"></rect>
  <rect id="5-9" x="4" y="8" width="1" height="1" shape-rendering="crispEdges"
    style="fill:var(--svg-fill-color);opacity:255;"></rect>
  <rect id="8-9" x="7" y="8" width="1" height="1" shape-rendering="crispEdges"
    style="fill:var(--svg-fill-color);opacity:255;"></rect>
  <rect id="9-9" x="8" y="8" width="1" height="1" shape-rendering="crispEdges"
    style="fill:var(--svg-fill-color);opacity:255;"></rect>
  <rect id="12-9" x="11" y="8" width="1" height="1" shape-rendering="crispEdges"
    style="fill:var(--svg-fill-color);opacity:255;"></rect>
  <rect id="7-10" x="6" y="9" width="1" height="1" shape-rendering="crispEdges"
    style="fill:var(--svg-fill-color);opacity:255;"></rect>
  <rect id="10-10" x="9" y="9" width="1" height="1" shape-rendering="crispEdges"
    style="fill:var(--svg-fill-color);opacity:255;"></rect>
  <rect id="3-11" x="2" y="10" width="1" height="1" shape-rendering="crispEdges"
    style="fill:var(--svg-fill-color);opacity:255;"></rect>
  <rect id="6-11" x="5" y="10" width="1" height="1" shape-rendering="crispEdges"
    style="fill:var(--svg-fill-color);opacity:255;"></rect>
  <rect id="11-11" x="10" y="10" width="1" height="1" shape-rendering="crispEdges"
    style="fill:var(--svg-fill-color);opacity:255;"></rect>
  <rect id="14-11" x="13" y="10" width="1" height="1" shape-rendering="crispEdges"
    style="fill:var(--svg-fill-color);opacity:255;"></rect>
  <rect id="2-12" x="1" y="11" width="1" height="1" shape-rendering="crispEdges"
    style="fill:var(--svg-fill-color);opacity:255;"></rect>
  <rect id="4-12" x="3" y="11" width="1" height="1" shape-rendering="crispEdges"
    style="fill:var(--svg-fill-color);opacity:255;"></rect>
  <rect id="5-12" x="4" y="11" width="1" height="1" shape-rendering="crispEdges"
    style="fill:var(--svg-fill-color);opacity:255;"></rect>
  <rect id="6-12" x="5" y="11" width="1" height="1" shape-rendering="crispEdges"
    style="fill:var(--svg-fill-color);opacity:255;"></rect>
  <rect id="7-12" x="6" y="11" width="1" height="1" shape-rendering="crispEdges"
    style="fill:var(--svg-fill-color);opacity:255;"></rect>
  <rect id="8-12" x="7" y="11" width="1" height="1" shape-rendering="crispEdges"
    style="fill:var(--svg-fill-color);opacity:255;"></rect>
  <rect id="9-12" x="8" y="11" width="1" height="1" shape-rendering="crispEdges"
    style="fill:var(--svg-fill-color);opacity:255;"></rect>
  <rect id="10-12" x="9" y="11" width="1" height="1" shape-rendering="crispEdges"
    style="fill:var(--svg-fill-color);opacity:255;"></rect>
  <rect id="11-12" x="10" y="11" width="1" height="1" shape-rendering="crispEdges"
    style="fill:var(--svg-fill-color);opacity:255;"></rect>
  <rect id="12-12" x="11" y="11" width="1" height="1" shape-rendering="crispEdges"
    style="fill:var(--svg-fill-color);opacity:255;"></rect>
  <rect id="13-12" x="12" y="11" width="1" height="1" shape-rendering="crispEdges"
    style="fill:var(--svg-fill-color);opacity:255;"></rect>
  <rect id="15-12" x="14" y="11" width="1" height="1" shape-rendering="crispEdges"
    style="fill:var(--svg-fill-color);opacity:255;"></rect>
  <rect id="3-13" x="2" y="12" width="1" height="1" shape-rendering="crispEdges"
    style="fill:var(--svg-fill-color);opacity:255;"></rect>
  <rect id="5-13" x="4" y="12" width="1" height="1" shape-rendering="crispEdges"
    style="fill:var(--svg-fill-color);opacity:255;"></rect>
  <rect id="12-13" x="11" y="12" width="1" height="1" shape-rendering="crispEdges"
    style="fill:var(--svg-fill-color);opacity:255;"></rect>
  <rect id="14-13" x="13" y="12" width="1" height="1" shape-rendering="crispEdges"
    style="fill:var(--svg-fill-color);opacity:255;"></rect>
</svg>